<svg width="25" height="26" viewBox="0 0 25 26" fill="none" xmlns="http://www.w3.org/2000/svg">
<g clip-path="url(#clip0_2088_822)">
<path d="M21.875 11.2515C21.875 18.5431 12.5 24.7931 12.5 24.7931C12.5 24.7931 3.125 18.5431 3.125 11.2515C3.125 8.76506 4.11272 6.3805 5.87088 4.62234C7.62903 2.86418 10.0136 1.87646 12.5 1.87646C14.9864 1.87646 17.3709 2.86418 19.1292 4.62234C20.8873 6.3805 21.875 8.76506 21.875 11.2515Z" stroke="#1473E6" stroke-width="1.04167" stroke-linecap="round" stroke-linejoin="round"/>
<path d="M12.5 14.3765C14.2259 14.3765 15.625 12.9774 15.625 11.2515C15.625 9.52558 14.2259 8.12646 12.5 8.12646C10.7741 8.12646 9.375 9.52558 9.375 11.2515C9.375 12.9774 10.7741 14.3765 12.5 14.3765Z" stroke="#1473E6" stroke-width="1.04167" stroke-linecap="round" stroke-linejoin="round"/>
</g>
<defs>
<clipPath id="clip0_2088_822">
<rect width="25" height="25" fill="white" transform="translate(0 0.834961)"/>
</clipPath>
</defs>
</svg>
