<svg width="25" height="26" viewBox="0 0 25 26" fill="none" xmlns="http://www.w3.org/2000/svg">
<path d="M23.9583 8.12646V1.87646H17.7083" stroke="#1473E6" stroke-width="1.04167" stroke-linecap="round" stroke-linejoin="round"/>
<path d="M16.6667 9.16813L23.9584 1.87646" stroke="#1473E6" stroke-width="1.04167" stroke-linecap="round" stroke-linejoin="round"/>
<path d="M22.9167 18.4602V21.5852C22.9178 21.8753 22.8584 22.1625 22.7422 22.4282C22.6259 22.6941 22.4555 22.9327 22.2418 23.1289C22.028 23.3249 21.7756 23.4743 21.5008 23.5672C21.2259 23.6601 20.9348 23.6947 20.6458 23.6686C17.4404 23.3202 14.3615 22.2249 11.6563 20.4706C9.13942 18.8714 7.00557 16.7375 5.40626 14.2206C3.64582 11.5031 2.55026 8.40917 2.20834 5.18939C2.18231 4.90133 2.21655 4.61102 2.30887 4.33691C2.40119 4.06282 2.54956 3.81094 2.74456 3.59733C2.93955 3.38371 3.1769 3.21305 3.44146 3.09618C3.70603 2.97932 3.99203 2.91883 4.28126 2.91856H7.40626C7.91179 2.91358 8.40188 3.0926 8.78518 3.42224C9.16848 3.75187 9.41884 4.20964 9.48959 4.71022C9.62149 5.71029 9.86611 6.69222 10.2188 7.63731C10.3589 8.01014 10.3892 8.41534 10.3062 8.80489C10.2231 9.19443 10.0301 9.55201 9.75001 9.83522L8.42709 11.1581C9.90997 13.766 12.0693 15.9252 14.6771 17.4081L16 16.0852C16.2832 15.8051 16.6408 15.6121 17.0303 15.5291C17.4199 15.446 17.8251 15.4764 18.1979 15.6165C19.143 15.9691 20.1249 16.2138 21.125 16.3456C21.6311 16.417 22.0931 16.6719 22.4234 17.0618C22.7539 17.4517 22.9294 17.9494 22.9167 18.4602Z" stroke="#1473E6" stroke-width="1.04167" stroke-linecap="round" stroke-linejoin="round"/>
</svg>
